:SAMPLES-PER-SECOND 30
:FULLY-SPECIFIED
:DEGREES
530
root  4.94896 40.8278 -0.667885 -48.2178 -89.3773 48.834
RightUpLeg  -0.0789223 -9.48993 -7.69292
RightLeg  6.34428 -6.23285 3.09041
RightFoot  -4.37361 -0.102366 1.23405
RightToes  0.00048216 0.542163 -0.142577
Spine  4.00654 0.424456 -0.897212
Spine1  -6.017 0.430739 0.194921
HEad  -3.51636 -12.7286 0.229714
LeftShoulder1  0.964717 -2.97392 -7.24777
LeftArm  -16.2762 12.7213 -4.15485
LeftForeArm  11.9928 -1.35233 -1.60149
LeftHand  -0.25398 0.0180481 5.50724
RightShoulder  0.329373 -0.83661 4.45674
RightArm  -18.5185 -1.78363 1.97301
RightForeArm  -1.22494 0.774571 3.47993
RightHand  -4.03385 11.8792 -27.0822
LeftUpLeg  2.09793 3.24914 -1.88683
LeftLeg  0.83923 15.6558 -4.81854
LeftFoot  -4.90808 -0.226414 4.55343
LeftToes  1.06248e-005 4.65856e-005 -8.18499e-006
531
root  5.00203 40.8409 -0.733861 -77.9164 -89.527 78.6497
RightUpLeg  -0.302333 -9.38759 -7.54705
RightLeg  6.22024 -6.08552 3.12437
RightFoot  -4.20876 -0.0974442 1.15251
RightToes  0.00048216 0.542163 -0.142577
Spine  3.9099 0.427053 -1.09164
Spine1  -6.00079 0.405862 0.394854
HEad  -3.78773 -12.529 0.41373
LeftShoulder1  0.93834 -2.81025 -7.20878
LeftArm  -16.5243 13.1091 -3.85663
LeftForeArm  11.0517 -1.60091 -1.49458
LeftHand  -0.25398 0.0180481 5.50724
RightShoulder  0.299896 -1.04247 4.27236
RightArm  -18.6969 -1.82508 2.10778
RightForeArm  -1.18375 0.880414 3.43039
RightHand  -4.08412 12.0048 -27.2146
LeftUpLeg  1.96911 3.24586 -1.82044
LeftLeg  0.663423 15.9455 -4.84329
LeftFoot  -4.72038 -0.232732 4.51348
LeftToes  1.06248e-005 4.65856e-005 -8.18499e-006
532
root  5.05493 40.8536 -0.798991 -92.7944 -89.5128 93.5979
RightUpLeg  -0.434786 -9.31905 -7.43277
RightLeg  6.09765 -6.06943 3.16152
RightFoot  -4.06375 -0.088303 1.00816
RightToes  0.00048216 0.542163 -0.142577
Spine  3.89617 0.342653 -1.25177
Spine1  -6.05708 0.306576 0.504342
HEad  -3.91831 -12.5397 0.582855
LeftShoulder1  0.905671 -2.66613 -7.00332
LeftArm  -16.8003 13.2884 -3.56503
LeftForeArm  10.3942 -1.7704 -1.38413
LeftHand  -0.25398 0.0180481 5.50724
RightShoulder  0.292063 -1.0975 4.21816
RightArm  -18.8222 -1.8426 2.12198
RightForeArm  -1.25962 0.736875 3.37167
RightHand  -4.12714 12.0921 -27.3567
LeftUpLeg  1.85689 3.25083 -1.75586
LeftLeg  0.542292 16.046 -4.8636
LeftFoot  -4.51768 -0.2429 4.52931
LeftToes  1.06248e-005 4.65856e-005 -8.18499e-006
533
root  5.10691 40.8643 -0.858593 -101.83 -89.5105 102.649
RightUpLeg  -0.519889 -9.27848 -7.31895
RightLeg  6.01408 -6.03003 3.21618
RightFoot  -3.91304 -0.0751858 0.804149
RightToes  0.00048216 0.542163 -0.142577
Spine  3.92468 0.284872 -1.31202
Spine1  -6.13326 0.239019 0.568188
HEad  -3.87923 -12.6407 0.486791
LeftShoulder1  0.898579 -2.69186 -6.80816
LeftArm  -16.9906 13.3386 -3.30168
LeftForeArm  9.68011 -1.87749 -1.32443
LeftHand  -0.25398 0.0180481 5.50724
RightShoulder  0.302367 -1.02039 4.26227
RightArm  -18.7534 -1.93422 1.96156
RightForeArm  -1.59185 0.573541 3.38091
RightHand  -4.07271 11.9087 -27.2842
LeftUpLeg  1.7715 3.24432 -1.68547
LeftLeg  0.490287 16.1383 -4.82394
LeftFoot  -4.3471 -0.24864 4.49585
LeftToes  1.06248e-005 4.65856e-005 -8.18499e-006
534
root  5.15216 40.8731 -0.917997 -116.595 -89.4802 117.385
RightUpLeg  -0.577103 -9.23255 -7.20239
RightLeg  5.9758 -5.96283 3.25718
RightFoot  -3.78678 -0.0638748 0.629613
RightToes  0.00048216 0.542163 -0.142577
Spine  3.91348 0.325159 -1.40695
Spine1  -6.10334 0.250735 0.769982
HEad  -3.69844 -12.6348 0.244386
LeftShoulder1  0.921921 -2.87473 -6.75706
LeftArm  -17.0474 13.313 -3.0893
LeftForeArm  8.79726 -2.0463 -1.35335
LeftHand  -0.25398 0.0180481 5.50724
RightShoulder  0.300392 -1.01136 4.11991
RightArm  -18.602 -2.07647 1.9208
RightForeArm  -1.55361 0.563361 3.41276
RightHand  -3.92983 11.5669 -26.8793
LeftUpLeg  1.74494 3.23333 -1.61304
LeftLeg  0.447755 16.2941 -4.76322
LeftFoot  -4.20973 -0.248266 4.38979
LeftToes  1.06248e-005 4.65856e-005 -8.18499e-006
535
root  5.1928 40.881 -0.983099 -128.401 -89.3791 129.181
RightUpLeg  -0.661781 -9.16103 -7.0932
RightLeg  5.95975 -5.93593 3.2498
RightFoot  -3.70904 -0.056537 0.51759
RightToes  0.00048216 0.542163 -0.142577
Spine  3.82322 0.379895 -1.67613
Spine1  -5.93984 0.25251 1.14914
HEad  -3.4746 -12.4343 0.129789
LeftShoulder1  0.93045 -2.94674 -6.70782
LeftArm  -17.0753 13.1697 -2.96209
LeftForeArm  8.45818 -2.16153 -1.38808
LeftHand  -0.25398 0.0180481 5.50724
RightShoulder  0.283197 -1.09877 3.81978
RightArm  -18.584 -2.09166 2.11033
RightForeArm  -0.91616 0.663158 3.39496
RightHand  -3.86214 11.5076 -26.5291
LeftUpLeg  1.72854 3.24294 -1.54608
LeftLeg  0.360087 16.4433 -4.767
LeftFoot  -4.06134 -0.249276 4.30188
LeftToes  1.06248e-005 4.65856e-005 -8.18499e-006
536
root  5.2347 40.8893 -1.04987 -133.575 -89.2709 134.397
RightUpLeg  -0.793234 -9.069 -6.97706
RightLeg  5.92585 -5.95673 3.21408
RightFoot  -3.63328 -0.0501705 0.420887
RightToes  0.00048216 0.542163 -0.142577
Spine  3.7283 0.353704 -1.99251
Spine1  -5.78667 0.178426 1.47806
HEad  -3.35463 -12.1541 0.190986
LeftShoulder1  0.895516 -2.78957 -6.43989
LeftArm  -17.2096 12.9694 -2.94189
LeftForeArm  9.12656 -2.08437 -1.32236
LeftHand  -0.25398 0.0180481 5.50724
RightShoulder  0.282994 -1.07827 3.72542
RightArm  -18.6561 -1.95167 2.23521
RightForeArm  -0.388252 0.772878 3.36975
RightHand  -3.94828 11.8166 -26.6281
LeftUpLeg  1.67078 3.26574 -1.47886
LeftLeg  0.237844 16.5438 -4.81851
LeftFoot  -3.88981 -0.254015 4.25959
LeftToes  1.06248e-005 4.65856e-005 -8.18499e-006
537
root  5.27775 40.8986 -1.10979 -137.961 -89.2151 138.812
RightUpLeg  -0.876886 -8.96845 -6.83244
RightLeg  5.83067 -6.00417 3.19604
RightFoot  -3.51636 -0.0431228 0.313255
RightToes  0.00048216 0.542163 -0.142577
Spine  3.75732 0.292727 -2.06723
Spine1  -5.79601 0.0997258 1.62565
HEad  -3.41787 -11.9846 0.204827
LeftShoulder1  0.857848 -2.66479 -6.14723
LeftArm  -17.3467 12.8782 -2.9477
LeftForeArm  10.0823 -1.98682 -1.22591
LeftHand  -0.25398 0.0180481 5.50724
RightShoulder  0.308782 -0.883979 3.81903
RightArm  -18.6019 -1.86773 2.09764
RightForeArm  -0.438705 0.862174 3.40621
RightHand  -4.05424 12.0564 -26.9516
LeftUpLeg  1.6038 3.27186 -1.39921
LeftLeg  0.158499 16.6238 -4.80681
LeftFoot  -3.74312 -0.255887 4.19231
LeftToes  1.06248e-005 4.65856e-005 -8.18499e-006
538
root  5.31928 40.9069 -1.16289 -142.513 -89.2076 143.329
RightUpLeg  -0.852974 -8.88839 -6.68838
RightLeg  5.6938 -6.06223 3.21877
RightFoot  -3.39776 -0.0366748 0.21397
RightToes  0.00048216 0.542163 -0.142577
Spine  3.91919 0.282989 -1.87579
Spine1  -5.91406 0.11469 1.42628
HEad  -3.58439 -12.0383 0.360438
LeftShoulder1  0.869714 -2.83528 -5.93387
LeftArm  -17.2509 12.8617 -2.80988
LeftForeArm  10.4899 -2.06309 -1.25763
LeftHand  -0.25398 0.0180481 5.50724
RightShoulder  0.323484 -0.797126 4.01116
RightArm  -18.4359 -1.91545 1.92104
RightForeArm  -0.548649 0.907115 3.46044
RightHand  -4.02481 11.9199 -26.9641
LeftUpLeg  1.55806 3.26845 -1.31214
LeftLeg  0.186131 16.6858 -4.70399
LeftFoot  -3.65805 -0.252022 4.0786
LeftToes  1.06248e-005 4.65856e-005 -8.18499e-006
539
root  5.36107 40.9118 -1.21821 -144.37 -89.1793 145.142
RightUpLeg  -0.839399 -8.87563 -6.61199
RightLeg  5.62479 -6.05831 3.27494
RightFoot  -3.34158 -0.031253 0.129054
RightToes  0.00048216 0.542163 -0.142577
Spine  4.07689 0.309935 -1.76025
Spine1  -5.93457 0.150255 1.34863
HEad  -3.70923 -12.1163 0.518618
LeftShoulder1  0.899419 -3.00619 -6.04547
LeftArm  -16.9935 12.6848 -2.53055
LeftForeArm  10.4671 -2.15034 -1.39174
LeftHand  -0.25398 0.0180481 5.50724
RightShoulder  0.310423 -0.899949 3.97531
RightArm  -18.3852 -1.89145 1.93526
RightForeArm  -0.207173 0.890595 3.45431
RightHand  -3.9124 11.662 -26.6259
LeftUpLeg  1.50145 3.26239 -1.2483
LeftLeg  0.263176 16.7309 -4.6209
LeftFoot  -3.59944 -0.248323 3.98489
LeftToes  1.06248e-005 4.65856e-005 -8.18499e-006
540
root  5.40609 40.9141 -1.28036 -144.645 -89.0396 145.422
RightUpLeg  -0.964585 -8.92456 -6.61176
RightLeg  5.69282 -5.90986 3.33527
RightFoot  -3.33954 -0.0257762 0.0420812
RightToes  0.00048216 0.542163 -0.142577
Spine  4.14184 0.33406 -1.94239
Spine1  -5.7768 0.141959 1.57051
HEad  -3.77518 -12.0358 0.599442
LeftShoulder1  0.893094 -2.88336 -6.22934
LeftArm  -16.9192 12.3572 -2.36661
LeftForeArm  10.5564 -2.03118 -1.4408
LeftHand  -0.25398 0.0180481 5.50724
RightShoulder  0.300354 -0.96721 3.88482
RightArm  -18.4872 -1.71321 1.99368
RightForeArm  0.182885 0.892239 3.41989
RightHand  -3.86848 11.6187 -26.4061
LeftUpLeg  1.427 3.25791 -1.2275
LeftLeg  0.261019 16.8406 -4.63841
LeftFoot  -3.51087 -0.248776 3.94355
LeftToes  1.06248e-005 4.65856e-005 -8.18499e-006
